<svg xmlns="http://www.w3.org/2000/svg" width="33" height="33" viewBox="0 0 33 33">
    <path data-name="사각형 346" style="fill:transparent" d="M0 0h33v33H0z"/>
    <path data-name="sms_FILL0_wght300_GRAD0_opsz48" d="M12.52 16.955a1.184 1.184 0 0 0 .9-.377 1.237 1.237 0 0 0 .358-.88 1.28 1.28 0 0 0-.358-.915 1.184 1.184 0 0 0-.9-.377 1.285 1.285 0 0 0-1.289 1.294 1.207 1.207 0 0 0 .376.88 1.242 1.242 0 0 0 .913.375zm6.159 0a1.242 1.242 0 0 0 .913-.377 1.207 1.207 0 0 0 .376-.88 1.285 1.285 0 0 0-1.289-1.292 1.2 1.2 0 0 0-.877.377 1.248 1.248 0 0 0-.376.915 1.287 1.287 0 0 0 1.253 1.257zm6.016 0a1.287 1.287 0 0 0 1.253-1.255 1.248 1.248 0 0 0-.376-.915 1.2 1.2 0 0 0-.877-.377 1.285 1.285 0 0 0-1.289 1.292 1.207 1.207 0 0 0 .376.88 1.242 1.242 0 0 0 .913.375zM5 31.639V7.082a2.027 2.027 0 0 1 .609-1.454A1.97 1.97 0 0 1 7.077 5h23.061a1.988 1.988 0 0 1 1.45.628 2 2 0 0 1 .627 1.454v17.376a2.146 2.146 0 0 1-2.077 2.082H10.085zm1.611-3.949 2.757-2.764h20.77a.433.433 0 0 0 .466-.467V7.082a.433.433 0 0 0-.466-.467H7.077a.433.433 0 0 0-.466.467zm0-20.607z" transform="translate(-2.021 -1.733)" style="fill:#707070"/>
</svg>
