<svg xmlns="http://www.w3.org/2000/svg" width="20" height="20" viewBox="0 0 20 20">
    <path d="m13.447 19.447 7.105-7.105-.921-.895-6.184 6.184-3.105-3.131-.895.921zM15 25a9.69 9.69 0 0 1-3.882-.789 10.026 10.026 0 0 1-5.329-5.329 10 10 0 0 1 0-7.789 9.975 9.975 0 0 1 2.145-3.172 10.247 10.247 0 0 1 3.184-2.132 10 10 0 0 1 7.789 0 9.931 9.931 0 0 1 5.3 5.3 10 10 0 0 1 0 7.789 10.247 10.247 0 0 1-2.132 3.184 9.975 9.975 0 0 1-3.171 2.145A9.754 9.754 0 0 1 15 25zm0-1.184a8.484 8.484 0 0 0 6.25-2.579A8.518 8.518 0 0 0 23.816 15a8.506 8.506 0 0 0-2.566-6.25A8.506 8.506 0 0 0 15 6.184 8.518 8.518 0 0 0 8.763 8.75 8.484 8.484 0 0 0 6.184 15a8.5 8.5 0 0 0 2.579 6.237A8.5 8.5 0 0 0 15 23.816zM15 15z" transform="translate(-5 -5)" style="fill:#707070"/>
</svg>
