<svg xmlns="http://www.w3.org/2000/svg" width="40.235" height="40.235" viewBox="0 0 40.235 40.235">
    <path data-name="check_circle_FILL0_wght300_GRAD0_opsz48" d="M21.994 34.064 36.288 19.77l-1.853-1.8-12.441 12.442-6.247-6.3-1.8 1.853zm3.123 11.17a19.493 19.493 0 0 1-7.809-1.588 20.17 20.17 0 0 1-10.72-10.72 20.121 20.121 0 0 1 0-15.67 20.067 20.067 0 0 1 4.312-6.38 20.614 20.614 0 0 1 6.406-4.288 20.121 20.121 0 0 1 15.67 0 19.979 19.979 0 0 1 10.671 10.668 20.121 20.121 0 0 1 0 15.67 20.614 20.614 0 0 1-4.288 6.406 20.067 20.067 0 0 1-6.379 4.315 19.623 19.623 0 0 1-7.863 1.588zm0-2.382a17.067 17.067 0 0 0 12.573-5.188 17.136 17.136 0 0 0 5.162-12.547 17.111 17.111 0 0 0-5.162-12.573 17.111 17.111 0 0 0-12.573-5.162 17.136 17.136 0 0 0-12.547 5.162 17.067 17.067 0 0 0-5.188 12.573 17.092 17.092 0 0 0 5.188 12.547 17.092 17.092 0 0 0 12.547 5.189zm0-17.735z" transform="translate(-5 -5)" style="fill:#46a500"/>
</svg>
