<svg xmlns="http://www.w3.org/2000/svg" width="20" height="18" viewBox="0 0 20 18">
    <path data-name="비번 보이기" d="m15.386 14.772-1-.989a2.213 2.213 0 0 0-.614-2.652 2.448 2.448 0 0 0-2.614-.539l-1-.989a2.764 2.764 0 0 1 .864-.36A4.25 4.25 0 0 1 12 9.132a3.749 3.749 0 0 1 2.739 1.112 3.665 3.665 0 0 1 1.125 2.708 3.888 3.888 0 0 1-.125.978 2.95 2.95 0 0 1-.353.842zm2.932 2.9-.909-.9a10.61 10.61 0 0 0 1.943-1.809 7.2 7.2 0 0 0 1.216-2.011 9.173 9.173 0 0 0-8.341-5.393 11.036 11.036 0 0 0-1.955.18 7.311 7.311 0 0 0-1.572.427L7.659 7.11a10.39 10.39 0 0 1 2.034-.63 11.361 11.361 0 0 1 2.42-.27 10.341 10.341 0 0 1 5.943 1.831A10.64 10.64 0 0 1 22 12.952a11.071 11.071 0 0 1-1.523 2.629 10.92 10.92 0 0 1-2.159 2.09zm1.318 5.079-3.818-3.708a8.908 8.908 0 0 1-1.8.483 12.15 12.15 0 0 1-2.018.168 10.5 10.5 0 0 1-6.023-1.831A10.757 10.757 0 0 1 2 12.952a10.162 10.162 0 0 1 1.261-2.281 12.828 12.828 0 0 1 1.966-2.123L2.364 5.716l.955-.966 17.2 17.011zM6.159 9.492a8.319 8.319 0 0 0-1.625 1.6 7.379 7.379 0 0 0-1.125 1.865A9.031 9.031 0 0 0 6.9 16.9a9.8 9.8 0 0 0 5.284 1.449 12.033 12.033 0 0 0 1.477-.09 3.562 3.562 0 0 0 1.091-.27L13.3 16.548a2.4 2.4 0 0 1-.614.169 4.479 4.479 0 0 1-.682.056 3.78 3.78 0 0 1-2.727-1.1 3.636 3.636 0 0 1-1.136-2.719 4.049 4.049 0 0 1 .057-.674 2.728 2.728 0 0 1 .17-.607zm6.932 3.191zm-2.636 1.303z" transform="translate(-2 -4.75)" style="fill:#707070"/>
</svg>
