<svg xmlns="http://www.w3.org/2000/svg" width="22.932" height="15.635" viewBox="0 0 22.932 15.635">
    <path d="M13.466 20.248a4.4 4.4 0 0 0 4.43-4.43 4.4 4.4 0 0 0-4.43-4.43 4.4 4.4 0 0 0-4.43 4.43 4.4 4.4 0 0 0 4.43 4.43zm0-1.511a2.892 2.892 0 0 1-2.919-2.919 2.892 2.892 0 0 1 2.919-2.918 2.892 2.892 0 0 1 2.919 2.919 2.892 2.892 0 0 1-2.919 2.919zm0 4.9a11.679 11.679 0 0 1-6.879-2.163A13.176 13.176 0 0 1 2 15.818a13.176 13.176 0 0 1 4.586-5.655A11.679 11.679 0 0 1 13.466 8a11.679 11.679 0 0 1 6.879 2.163 13.176 13.176 0 0 1 4.586 5.655 13.176 13.176 0 0 1-4.586 5.655 11.679 11.679 0 0 1-6.879 2.162zm0-7.819zm0 6.254a10.479 10.479 0 0 0 5.8-1.707 11.076 11.076 0 0 0 4.026-4.547 11.076 11.076 0 0 0-4.026-4.547 10.7 10.7 0 0 0-11.6 0 11.262 11.262 0 0 0-4.052 4.547 11.262 11.262 0 0 0 4.052 4.547 10.479 10.479 0 0 0 5.8 1.707z" transform="translate(-2 -8)" style="fill:#707070"/>
</svg>
