<svg xmlns="http://www.w3.org/2000/svg" width="44" height="44" viewBox="0 0 44 44">
  <g id="구글_간편가입버튼" data-name="구글 간편가입버튼" transform="translate(-1137 -3679)">
    <g id="타원_9" data-name="타원 9" transform="translate(1137 3679)" fill="#fff" stroke="#f0f0f0" stroke-width="1">
      <circle cx="22" cy="22" r="22" stroke="none"/>
      <circle cx="22" cy="22" r="21.5" fill="none"/>
    </g>
    <g id="google-icon" transform="translate(1145.884 3687.928)">
      <path id="패스_133" data-name="패스 133" d="M13.134,5.757A7.029,7.029,0,0,1,17.58,7.339l3.5-3.5A12.039,12.039,0,0,0,2.322,7.527l4.069,3.089A7.085,7.085,0,0,1,13.134,5.757Z" transform="translate(0.064 0)" fill="#ea4335"/>
      <path id="패스_134" data-name="패스 134" d="M1.143,12.529a12.141,12.141,0,0,0,1.243,5.35l4.069-3.127a7.219,7.219,0,0,1-.339-2.223,6.124,6.124,0,0,1,.377-2.223L2.386,7.18A12.141,12.141,0,0,0,1.143,12.529Z" transform="translate(0 0.348)" fill="#fbbc05"/>
      <path id="패스_135" data-name="패스 135" d="M13.134,24.192a11.543,11.543,0,0,0,7.874-3.014L17.165,18.2a7.5,7.5,0,0,1-3.993,1.055,7.035,7.035,0,0,1-6.744-4.9L2.322,17.486A12.005,12.005,0,0,0,13.134,24.192Z" transform="translate(0.064 0.74)" fill="#34a853"/>
      <path id="패스_136" data-name="패스 136" d="M24.1,12.365a10.821,10.821,0,0,0-.264-2.185H12.574v4.672h6.48A5.554,5.554,0,0,1,16.6,18.468l3.843,2.976A12.152,12.152,0,0,0,24.1,12.365Z" transform="translate(0.625 0.512)" fill="#4285f4"/>
    </g>
  </g>
</svg>
