<svg xmlns="http://www.w3.org/2000/svg" width="44" height="44" viewBox="0 0 44 44">
    <g data-name="애플 간편가입버튼" transform="translate(-1219 -3679)">
        <circle data-name="타원 10" cx="22" cy="22" r="22" transform="translate(1219 3679)"/>
        <path data-name="패스 24" d="M15.637 6.764a4.494 4.494 0 0 0-2.147 3.78 4.374 4.374 0 0 0 2.663 4.012 10.4 10.4 0 0 1-1.363 2.815c-.849 1.222-1.736 2.442-3.085 2.442s-1.7-.784-3.254-.784c-1.518 0-2.058.81-3.292.81s-2.1-1.131-3.085-2.52A12.153 12.153 0 0 1 0 10.75c0-3.857 2.508-5.9 4.976-5.9 1.312 0 2.4.861 3.228.861.784 0 2.006-.913 3.5-.913a4.678 4.678 0 0 1 3.935 1.968zm-4.643-3.6A4.43 4.43 0 0 0 12.048.4a1.9 1.9 0 0 0-.038-.4 4.438 4.438 0 0 0-2.919 1.5A4.313 4.313 0 0 0 8 4.192a1.822 1.822 0 0 0 .038.359 1.553 1.553 0 0 0 .27.026 3.845 3.845 0 0 0 2.689-1.415z" transform="translate(1233 3691)" style="fill:#fff"/>
    </g>
</svg>
