<svg xmlns="http://www.w3.org/2000/svg" width="200" height="49.545" viewBox="0 0 200 49.545">
    <defs>
        <clipPath id="cycrmbh6fa">
            <path data-name="사각형 495" style="fill:#fff241" d="M0 0h24.317v18.913H0z"/>
        </clipPath>
    </defs>
    <g data-name="날개 심볼" transform="translate(36.035)" style="clip-path:url(#cycrmbh6fa)">
        <path data-name="패스 132" d="M20.769 6.033A8.285 8.285 0 0 0 24.317 0S6.959 10.3 3.839 12.3 0 18.913 0 18.913a21.948 21.948 0 0 1 5.333-.922 53.432 53.432 0 0 1 9.884.516c2.7.422 4.187-2.368 4.187-2.368s-6.761-.419-11.44-.217c3.547-.782 8.662-1.844 10.879-2.52a6.5 6.5 0 0 0 3.984-3.942S10.856 12.7 5.949 14.1c3.434-1.92 11.76-6.126 14.82-8.071" style="fill:#fff241"/>
    </g>
    <g data-name="심볼 로고">
        <path data-name="패스 123" d="M41.847 90.509h-8.938c-5.408 0-7.481-3.583-7.481-8.665v-8.508l-5.112-.031 1.05-4.726 4.557.041v-6.343l1.2.467a6.248 6.248 0 0 1 4.257 5.835l5.632 5.251H31.4v8.014c0 2.6.464 3.822 5.191 3.822z" transform="translate(-5.333 -40.964)" style="fill:#3f52fc"/>
        <path data-name="패스 124" d="M47.228 80.134c0-7.359 5.2-11.954 10.611-11.954 6.262 0 9.515 4.595 9.515 10.856a11.22 11.22 0 0 1-.285 2.765H53.042c.488 3.741 2.927 5.692 6.3 5.692 1.87 0 4.455.121 7.08-2.5v5.247c-2.236 1.545-5.048 1.848-7.853 1.848-6.383 0-11.343-4.433-11.343-11.954m15-2.318c0-3.049-1.383-5-4.31-5-2.4 0-4.513 1.708-4.96 5z" transform="translate(-13.291 -42.668)" style="fill:#3f52fc"/>
        <path data-name="패스 125" d="M80.228 69.488h.98c3.151 0 4.065 1.129 4.288 2.653l.058.4h.122c1.911-1.992 4.025-3.618 6.993-3.618a6.2 6.2 0 0 1 6.262 3.977c2.074-2.2 4.269-3.985 7.238-3.985 4.838 0 7.075 3.415 7.075 9.148v14.194h-5.977V78.8c0-3.537-1.016-4.757-3.171-4.757q-1.951 0-4.391 2.562v15.652h-5.938V78.8c0-3.537-1.057-4.757-3.212-4.757-1.3 0-2.765.853-4.351 2.562v15.652h-5.976z" transform="translate(-23.181 -42.882)" style="fill:#3f52fc"/>
        <path data-name="패스 126" d="M20.75 54.323c-6.3 2.6-6.6 6.448-7.746 10.657L9.457 78l-2.434 8.818H0l9.247-28.655a10.1 10.1 0 0 1 9.624-6.963H28.1z" transform="translate(0 -37.443)" style="fill:#3f52fc"/>
    </g>
    <g data-name="1004 로고">
        <path data-name="박스 0" d="m172.313 201.955-7.243 4.807v24.571l16.038 6.41 6.208-6.41v-24.571z" transform="translate(-65.591 -188.198)" style="fill:#e9e9fd"/>
        <path data-name="박스 0" d="m172.313 201.955-7.243 4.807v24.571l16.038 6.41 6.208-6.41v-24.571z" transform="translate(-39.483 -188.198)" style="fill:#e9e9fd"/>
        <path data-name="박스 0" d="m172.313 201.955-7.243 4.807v24.571l16.038 6.41 6.208-6.41v-24.571z" transform="translate(-13.425 -188.198)" style="fill:#e9e9fd"/>
        <path data-name="박스 0" d="m172.313 201.955-7.243 4.807v24.571l16.038 6.41 6.208-6.41v-24.571z" transform="translate(12.684 -188.198)" style="fill:#e9e9fd"/>
        <path data-name="1" d="M220.117 17.464h2.858V5.417h-3.5V4.278a1.608 1.608 0 0 1 1.177-1.568 11.186 11.186 0 0 0 3.31-1.4h2.843v16.154h2.136A1.511 1.511 0 0 1 230.435 19v1.661h-11.607V18.79a1.308 1.308 0 0 1 1.289-1.326" transform="translate(-114.267 19.946)" style="fill:#3f52fc"/>
        <path data-name="0" d="M271.371 10.061c0-6.617 2.676-10.061 6.784-10.061s6.757 3.471 6.757 10.061c0 6.644-2.648 10.251-6.757 10.251s-6.784-3.607-6.784-10.251m9.785 0c0-5.424-1.27-6.942-3-6.942s-3.027 1.519-3.027 6.942c0 5.451 1.3 7.132 3.027 7.132s3-1.682 3-7.132" transform="translate(-141.765 21.258)" style="fill:#3f52fc"/>
        <path data-name="0" d="M327.473 10.061c0-6.617 2.676-10.061 6.785-10.061s6.757 3.471 6.757 10.061c0 6.644-2.648 10.251-6.757 10.251s-6.784-3.607-6.784-10.251m9.785 0c0-5.424-1.27-6.942-3-6.942s-3.027 1.519-3.027 6.942c0 5.451 1.3 7.132 3.027 7.132s3-1.682 3-7.132" transform="translate(-171.733 21.258)" style="fill:#3f52fc"/>
        <path data-name="4" d="M389.911 16.58h-7.12a1.4 1.4 0 0 1-1.37-1.437v-1.408l7.416-12.424h2.986a1.815 1.815 0 0 1 1.77 1.856V13.4h2.338v3.18h-2.338v3.257a1.746 1.746 0 0 1-1.7 1.786h-1.978zm0-3.183V9.34c0-1.212.081-3.127.134-4.339h-.108c-.483 1.1-1.021 2.141-1.585 3.268l-3.09 5.127z" transform="translate(-200.635 19.947)" style="fill:#3f52fc"/>
    </g>
</svg>
