<svg xmlns="http://www.w3.org/2000/svg" width="103.925" height="102.841" viewBox="0 0 103.925 102.841">
    <defs>
        <clipPath id="jom8vuykxa">
            <path data-name="사각형 495" style="fill:#fff241" d="M0 0h27v21H0z"/>
        </clipPath>
    </defs>
    <g data-name="날개 심볼" transform="translate(41.556)" style="clip-path:url(#jom8vuykxa)">
        <path data-name="패스 132" d="M23.061 6.7A9.2 9.2 0 0 0 27 0S7.727 11.44 4.262 13.655 0 21 0 21a24.369 24.369 0 0 1 5.922-1.023 59.327 59.327 0 0 1 10.978.573c3 .468 4.649-2.629 4.649-2.629s-7.507-.465-12.7-.241c3.938-.868 9.617-2.047 12.079-2.8a7.215 7.215 0 0 0 4.418-4.38s-13.293 3.6-18.741 5.157c3.813-2.132 13.057-6.8 16.455-8.962" style="fill:#fff241"/>
    </g>
    <g data-name="심볼 로고">
        <path data-name="패스 123" d="M44.222 93.624H34.3c-6 0-8.307-3.978-8.307-9.621v-9.446l-5.676-.035 1.166-5.248 5.06.045v-7.042l1.337.518a6.938 6.938 0 0 1 4.727 6.479l6.251 5.826h-6.23V84c0 2.889.515 4.243 5.764 4.243z" transform="translate(-2.134 -38.612)" style="fill:#3f52fc"/>
        <path data-name="패스 124" d="M47.228 81.453c0-8.171 5.779-13.273 11.782-13.273 6.953 0 10.565 5.1 10.565 12.054a12.459 12.459 0 0 1-.317 3.07H53.683c.542 4.153 3.25 6.32 7 6.32 2.077 0 4.946.134 7.862-2.781v5.831c-2.483 1.716-5.6 2.052-8.72 2.052-7.088 0-12.595-4.922-12.595-13.273m16.656-2.573c0-3.386-1.535-5.553-4.785-5.553-2.663 0-5.011 1.9-5.508 5.553z" transform="translate(-8.002 -39.854)" style="fill:#3f52fc"/>
        <path data-name="패스 125" d="M80.228 69.551h1.088c3.5 0 4.514 1.254 4.761 2.946l.064.44h.136c2.122-2.212 4.469-4.018 7.764-4.018a6.882 6.882 0 0 1 6.953 4.424c2.3-2.438 4.74-4.424 8.036-4.424 5.372 0 7.855 3.792 7.855 10.157v15.756h-6.637V79.889c0-3.928-1.128-5.282-3.521-5.282q-2.166 0-4.875 2.844v17.381h-6.591V79.889c0-3.928-1.173-5.282-3.566-5.282-1.445 0-3.07.948-4.831 2.844v17.381h-6.636z" transform="translate(-15.341 -40.009)" style="fill:#3f52fc"/>
        <path data-name="패스 126" d="M23.039 54.668c-7 2.889-7.328 7.16-8.6 11.833L10.5 80.96l-2.7 9.788H0l10.268-31.817A11.211 11.211 0 0 1 20.953 51.2H31.2z" transform="translate(1.545 -35.925)" style="fill:#3f52fc"/>
    </g>
    <g data-name="1004 로고">
        <path data-name="박스 0" d="m172.558 201.955-7.488 4.97v25.4l16.581 6.627 6.419-6.627v-25.4z" transform="translate(-165.07 -136.114)" style="fill:#e9e9fd"/>
        <path data-name="박스 0" d="m172.558 201.955-7.488 4.97v25.4l16.581 6.627 6.419-6.627v-25.4z" transform="translate(-138.078 -136.114)" style="fill:#e9e9fd"/>
        <path data-name="박스 0" d="m172.558 201.955-7.488 4.97v25.4l16.581 6.627 6.419-6.627v-25.4z" transform="translate(-111.138 -136.114)" style="fill:#e9e9fd"/>
        <path data-name="박스 0" d="m172.558 201.955-7.488 4.97v25.4l16.581 6.627 6.419-6.627v-25.4z" transform="translate(-84.145 -136.114)" style="fill:#e9e9fd"/>
        <path data-name="1" d="M220.16 18.011h2.955V5.556H219.5V4.379a1.662 1.662 0 0 1 1.216-1.621 11.565 11.565 0 0 0 3.422-1.446h2.939v16.7h2.209a1.562 1.562 0 0 1 1.54 1.584v1.717h-12v-1.93a1.352 1.352 0 0 1 1.332-1.371" transform="translate(-213.574 72.284)" style="fill:#3f52fc"/>
        <path data-name="0" d="M271.371 10.4c0-6.841 2.766-10.4 7.014-10.4s6.986 3.589 6.986 10.4c0 6.869-2.738 10.6-6.986 10.6s-7.014-3.729-7.014-10.6m10.116 0c0-5.607-1.313-7.177-3.1-7.177s-3.13 1.57-3.13 7.177c0 5.635 1.341 7.374 3.13 7.374s3.1-1.738 3.1-7.374" transform="translate(-240.224 73.596)" style="fill:#3f52fc"/>
        <path data-name="0" d="M327.473 10.4c0-6.841 2.766-10.4 7.014-10.4s6.986 3.589 6.986 10.4c0 6.869-2.738 10.6-6.986 10.6s-7.014-3.729-7.014-10.6m10.116 0c0-5.607-1.313-7.177-3.1-7.177s-3.13 1.57-3.13 7.177c0 5.635 1.341 7.374 3.13 7.374s3.1-1.738 3.1-7.374" transform="translate(-269.307 73.596)" style="fill:#3f52fc"/>
        <path data-name="4" d="M390.2 17.1h-7.361a1.452 1.452 0 0 1-1.417-1.485v-1.459l7.667-12.845h3.087A1.876 1.876 0 0 1 394 3.23v10.576h2.417V17.1H394v3.367a1.805 1.805 0 0 1-1.761 1.846H390.2zm0-3.291V9.612c0-1.253.083-3.233.139-4.486h-.111c-.5 1.136-1.055 2.214-1.639 3.378l-3.194 5.3z" transform="translate(-297.361 72.285)" style="fill:#3f52fc"/>
    </g>
</svg>
