<svg xmlns="http://www.w3.org/2000/svg" width="29" height="29" viewBox="0 0 29 29">
    <path d="M8.5 28.645v-1.658h2.993V15.845A8.247 8.247 0 0 1 13.3 10.6a7.548 7.548 0 0 1 4.687-2.831V6.723a1.524 1.524 0 0 1 .487-1.172 1.844 1.844 0 0 1 2.416 0 1.524 1.524 0 0 1 .487 1.172v1.045a7.622 7.622 0 0 1 4.701 2.832 8.2 8.2 0 0 1 1.822 5.245v11.142h2.957v1.659zM19.678 18.3zm0 14.567a2.522 2.522 0 0 1-1.821-.757 2.475 2.475 0 0 1-.775-1.839h5.192a2.585 2.585 0 0 1-2.6 2.6zm-6.562-5.877H26.24V15.845a6.422 6.422 0 0 0-1.893-4.669 6.242 6.242 0 0 0-4.633-1.929 6.556 6.556 0 0 0-6.6 6.6z" transform="translate(-5.615 -4.379)" style="fill:#707070"/>
    <path data-name="패스 148" d="M0 0h29v29z" style="fill:transparent"/>
</svg>
