<svg xmlns="http://www.w3.org/2000/svg" width="20" height="25" viewBox="0 0 20 25">
    <path d="M8.5 26.3v-1.492h2.677V14.775a7.457 7.457 0 0 1 1.613-4.724A6.746 6.746 0 0 1 16.984 7.5v-.939a1.376 1.376 0 0 1 .435-1.055 1.642 1.642 0 0 1 2.161 0 1.376 1.376 0 0 1 .435 1.055V7.5a6.811 6.811 0 0 1 4.21 2.549 7.409 7.409 0 0 1 1.629 4.724v10.035H28.5V26.3zm10-9.317zm0 13.117a2.348 2.348 0 0 1-2.323-2.338h4.645a2.262 2.262 0 0 1-.677 1.656 2.233 2.233 0 0 1-1.645.682zm-5.871-5.292h11.742V14.775a5.8 5.8 0 0 0-1.694-4.2 5.566 5.566 0 0 0-4.145-1.737 5.656 5.656 0 0 0-4.194 1.737 5.773 5.773 0 0 0-1.71 4.2z" transform="translate(-8.5 -5.1)" style="fill:#fff"/>
</svg>
