<svg xmlns="http://www.w3.org/2000/svg" width="29" height="29" viewBox="0 0 29 29">
    <path data-name="사각형 359" style="fill:transparent" d="M0 0h29v29H0z"/>
    <g data-name="그룹 5">
        <g data-name="그룹 4">
            <path data-name="패스 3" d="M142.023 14.681h.154a4.177 4.177 0 0 0 3.395-1.721c1.854-2.449 1.546-6.647 1.512-7.047-.12-3.007-1.334-4.446-2.335-5.118a4.76 4.76 0 0 0-2.591-.8h-.082a4.74 4.74 0 0 0-2.591.773c-1.011.671-2.244 2.11-2.364 5.14-.034.4-.342 4.6 1.512 7.047a4.161 4.161 0 0 0 3.39 1.726zm-3.616-8.627v-.045c.159-4.046 2.61-4.48 3.66-4.48h.058c1.3.034 3.51.655 3.66 4.48a.128.128 0 0 0 0 .045c0 .039.342 3.876-1.189 5.9a2.955 2.955 0 0 1-2.48 1.207h-.048a2.946 2.946 0 0 1-2.475-1.207c-1.519-2.012-1.193-5.866-1.186-5.9z" transform="translate(-128.09 1.668)" style="fill:#707070"/>
            <path data-name="패스 4" d="M57.523 266.261v-.017c0-.045-.005-.09-.005-.141-.031-1.117-.1-3.73-2.366-4.565l-.052-.017a14.614 14.614 0 0 1-4.335-2.133.672.672 0 0 0-.982.186.8.8 0 0 0 .172 1.061 15.779 15.779 0 0 0 4.768 2.353c1.217.468 1.353 1.873 1.389 3.16a1.222 1.222 0 0 0 .005.141 11.051 11.051 0 0 1-.11 1.743 18.112 18.112 0 0 1-9.207 2.313 18.217 18.217 0 0 1-9.212-2.319 10.462 10.462 0 0 1-.11-1.744c0-.045.005-.09.005-.141.037-1.286.172-2.691 1.389-3.16a15.925 15.925 0 0 0 4.768-2.353.8.8 0 0 0 .172-1.061.672.672 0 0 0-.982-.186 14.458 14.458 0 0 1-4.335 2.133.532.532 0 0 0-.052.017c-2.267.841-2.334 3.453-2.366 4.565a1.222 1.222 0 0 1-.005.141v.017a9.318 9.318 0 0 0 .266 2.556.715.715 0 0 0 .272.355 18.677 18.677 0 0 0 10.194 2.7A18.733 18.733 0 0 0 57 269.167a.745.745 0 0 0 .272-.355 9.78 9.78 0 0 0 .251-2.551z" transform="translate(-32.781 -244.976)" style="fill:#707070"/>
        </g>
    </g>
</svg>
