<svg xmlns="http://www.w3.org/2000/svg" width="60" height="60" viewBox="0 0 60 60">
    <g data-name="그룹 152">
        <path data-name="패스 149" d="M0 0h50a10 10 0 0 1 10 10v40a10 10 0 0 1-10 10H0z" style="fill:#3f52fc"/>
        <path data-name="돋보기아이콘" d="m33.76 35.027-10.7-10.66a9.121 9.121 0 0 1-2.86 1.666 9.776 9.776 0 0 1-3.4.6 9.657 9.657 0 0 1-7.1-2.9 9.608 9.608 0 0 1-2.9-7.063 9.56 9.56 0 0 1 2.9-7.018 9.608 9.608 0 0 1 7.059-2.9 9.608 9.608 0 0 1 7.059 2.9 9.56 9.56 0 0 1 2.9 7.018 9.832 9.832 0 0 1-.6 3.375 9.663 9.663 0 0 1-1.708 2.964l10.7 10.66zM16.8 24.778a7.7 7.7 0 0 0 5.68-2.367 7.853 7.853 0 0 0 2.346-5.742 7.785 7.785 0 0 0-2.346-5.721A7.737 7.737 0 0 0 16.8 8.6a8.012 8.012 0 0 0-8.107 8.07 7.853 7.853 0 0 0 2.346 5.742 7.8 7.8 0 0 0 5.761 2.366z" transform="translate(9.2 9.25)" style="fill:#fff"/>
    </g>
</svg>
