<svg xmlns="http://www.w3.org/2000/svg" width="21.177" height="21.177" viewBox="0 0 21.177 21.177">
    <path d="m26.869 27.52-7.793-7.8a6.243 6.243 0 0 1-2.116 1.25 7.191 7.191 0 0 1-2.42.427 6.714 6.714 0 0 1-4.916-2.012A6.658 6.658 0 0 1 7.6 14.471a6.865 6.865 0 0 1 6.91-6.921 6.714 6.714 0 0 1 4.916 2.012 6.658 6.658 0 0 1 2.024 4.909 7.08 7.08 0 0 1-.441 2.454 6.463 6.463 0 0 1-1.263 2.119l7.823 7.774zm-12.328-7.074a5.815 5.815 0 0 0 4.259-1.722 5.757 5.757 0 0 0 1.735-4.253 5.93 5.93 0 0 0-6-6.006 5.93 5.93 0 0 0-6 6.006 5.757 5.757 0 0 0 1.735 4.253 5.815 5.815 0 0 0 4.271 1.722z" transform="translate(-7.1 -7.05)" style="fill:none;stroke:#fff"/>
</svg>
